<?xml version="1.0"?>
<svg xmlns="http://www.w3.org/2000/svg" height="512px" viewBox="-18 0 512 512.00165" width="512px" class=""><g><g fill="#00aadf"><path d="m97.628906 501.046875 26.972656-69 28.019532 10.957031-26.972656 68.996094zm0 0" data-original="#000000" class="active-path" style="fill:#007FC5" data-old_color="#000000"/><path d="m234.316406 501.042969 26.972656-69 28.023438 10.953125-26.972656 69zm0 0" data-original="#000000" class="active-path" style="fill:#007FC5" data-old_color="#000000"/><path d="m302.609375 501.039062 26.976563-69 28.019531 10.957032-26.972657 69zm0 0" data-original="#000000" class="active-path" style="fill:#007FC5" data-old_color="#000000"/><path d="m108.957031 339-22.3125 55.886719 28.023438 10.953125 26.589843-66.839844zm0 0" data-original="#000000" class="active-path" style="fill:#007FC5" data-old_color="#000000"/><path d="m309.972656 345.265625-19.347656 49.621094 28.019531 10.953125 23.632813-60.574219zm0 0" data-original="#000000" class="active-path" style="fill:#007FC5" data-old_color="#000000"/></g><path d="m234.316406 501.042969 26.972656-69 28.023438 10.953125-26.972656 69zm0 0" fill="#007fc5" data-original="#007FC5" class=""/><path d="m302.609375 501.039062 26.976563-69 28.019531 10.957032-26.972657 69zm0 0" fill="#007fc5" data-original="#007FC5" class=""/><path d="m309.972656 345.265625-19.347656 49.621094 28.019531 10.953125 23.632813-60.574219zm0 0" fill="#007fc5" data-original="#007FC5" class=""/><path d="m387.667969 348.511719h-282.742188c-57.855469 0-104.925781-47.070313-104.925781-104.925781v-8.046876c0-53.132812 39.703125-97.171874 91-104.003906v-31.5625c0-55.125 44.847656-99.972656 99.972656-99.972656h1.714844c50.476562 0 92.335938 37.601562 99.039062 86.265625 47.566407 3.164063 86.078126 39.957031 91.921876 86.753906h4.019531c48.382812 0 87.746093 39.363281 87.746093 87.746094s-39.363281 87.746094-87.746093 87.746094zm0 0" fill="#b6c4cf" data-original="#B6C4CF" class="" style="fill:#96A3AB" data-old_color="#B6C4CF"/><path d="m387.667969 173.019531h-4.019531c-5.84375-46.796875-44.355469-83.589843-91.921876-86.753906-4.949218-35.90625-29.042968-65.773437-61.609374-78.972656v341.21875h157.550781c48.382812 0 87.746093-39.363281 87.746093-87.746094s-39.363281-87.746094-87.746093-87.746094zm0 0" fill="#96a3ab" data-original="#96A3AB" class="" style="fill:#96A3AB" data-old_color="#B6C4CF"/><path d="m283.382812 148.746094-18.519531 140.820312h51.5l-124.328125 222.433594 18.515625-130.585938h-51.496093zm0 0" fill="#ffda2d" data-original="#FFDA2D" class=""/><path d="m230.117188 248.429688.949218 193.742187 85.296875-152.605469h-51.5l18.519531-140.820312zm0 0" fill="#fdbf00" data-original="#FDBF00" class=""/></g> </svg>
